<?xml version="1.0" encoding="UTF-8" standalone="no"?>
<!-- Created with Inkscape (http://www.inkscape.org/) -->

<svg
   xmlns:dc="http://purl.org/dc/elements/1.1/"
   xmlns:cc="http://creativecommons.org/ns#"
   xmlns:rdf="http://www.w3.org/1999/02/22-rdf-syntax-ns#"
   xmlns:svg="http://www.w3.org/2000/svg"
   xmlns="http://www.w3.org/2000/svg"
   xmlns:sodipodi="http://sodipodi.sourceforge.net/DTD/sodipodi-0.dtd"
   xmlns:inkscape="http://www.inkscape.org/namespaces/inkscape"
   version="1.1"
   id="svg3580"
   width="95"
   height="95"
   viewBox="0 0 95 95"
   sodipodi:docname="logo_2.svg"
   inkscape:version="0.92.3 (2405546, 2018-03-11)">
  <metadata
     id="metadata3586">
    <rdf:RDF>
      <cc:Work
         rdf:about="">
        <dc:format>image/svg+xml</dc:format>
        <dc:type
           rdf:resource="http://purl.org/dc/dcmitype/StillImage" />
        <dc:title></dc:title>
      </cc:Work>
    </rdf:RDF>
  </metadata>
  <defs
     id="defs3584" />
  <sodipodi:namedview
     pagecolor="#ffffff"
     bordercolor="#666666"
     borderopacity="1"
     objecttolerance="10"
     gridtolerance="10"
     guidetolerance="10"
     inkscape:pageopacity="0"
     inkscape:pageshadow="2"
     inkscape:window-width="1366"
     inkscape:window-height="705"
     id="namedview3582"
     showgrid="false"
     inkscape:zoom="3.3915815"
     inkscape:cx="53.351287"
     inkscape:cy="57.704494"
     inkscape:window-x="-8"
     inkscape:window-y="-8"
     inkscape:window-maximized="1"
     inkscape:current-layer="svg3580" />
  <g
     id="g3590"
     transform="matrix(0.20957246,0,0,0.20608851,1.211537,1.8381902)">
    <path
       style="fill:#fab391"
       d="M 189.5,445.43134 C 153.42099,441.45984 113.8477,424.39471 83.437527,399.69418 73.03646,391.24596 49.917821,367.49466 42.853951,358 19.562243,326.69324 5.2189267,291.2396 1.4688443,255.70478 c -1.87953922,-17.81004 -1.87953922,-46.59952 0,-64.40956 C 5.4520953,153.55095 22.017504,114.57135 47.305816,83.437527 55.754037,73.03646 79.50534,49.917821 89,42.853951 120.30676,19.562243 155.7604,5.2189267 191.29522,1.4688443 c 17.81004,-1.87953922 46.59952,-1.87953922 64.40956,0 37.74427,3.983251 76.72387,20.5486597 107.85769,45.8369717 10.40107,8.448221 33.51971,32.199524 40.58358,41.694184 23.29171,31.30676 37.63502,66.7604 41.38511,102.29522 1.87953,17.81004 1.87953,46.59952 0,64.40956 -3.75009,35.53482 -18.0934,70.98846 -41.38511,102.29522 -7.07593,9.51087 -30.18903,33.25132 -40.62482,41.72748 -31.03974,25.21112 -70.15722,41.8294 -107.81645,45.80368 -16.87812,1.78119 -49.56451,1.73191 -66.20478,-0.0998 z m 52.52623,-20.457 C 288.41955,419.3589 331.7809,399.26976 363.874,368.52276 396.61138,337.1585 419.09328,290.61406 424.97434,242.02623 430.73511,194.43218 412.5505,136.45551 378.70214,94.5 339.15786,45.484304 266.73737,15.179332 205.5,22.022082 159.69018,27.140936 115.36673,47.588803 83.126001,78.477237 40.771922,119.05483 15.788101,185.71065 22.022082,241.5 c 5.118854,45.80982 25.566721,90.13327 56.455155,122.374 30.903823,32.25679 77.599353,55.03777 125.022763,60.99385 9.98344,1.25386 28.62135,1.30537 38.52623,0.10649 z M 97.25,372.8251 c -1.7875,-1.10506 -3.249009,-2.53028 -3.247797,-3.16715 0.0012,-0.63687 3.522304,-10.15795 7.824647,-21.15795 7.4061,-18.93551 8.72682,-21.46368 24.81404,-47.5 9.34537,-15.125 29.05778,-47.075 43.80534,-71 14.74757,-23.925 27.65526,-44.69447 28.68376,-46.15437 1.02851,-1.4599 1.87001,-2.86489 1.87001,-3.12219 0,-0.2573 -1.7512,-0.74785 -3.89156,-1.09011 -2.75453,-0.44047 -4.81009,-1.66844 -7.03531,-4.20282 -3.11739,-3.55051 -3.14135,-3.66164 -2.85844,-13.25552 L 187.5,152.5 h 37.5 37.5 l 0.25426,9 c 0.16335,5.78229 -0.19938,9.88308 -1.01457,11.46998 -1.62258,3.15863 -7.34295,7.03002 -10.38757,7.03002 -2.8369,0 -2.89115,0.42019 -0.49654,3.84563 1.55299,2.22153 32.72111,52.63435 56.97515,92.15437 3.5442,5.775 12.31307,19.92636 19.48637,31.44746 11.88843,19.09413 13.73404,22.72162 20.86015,41 4.29978,11.0289 7.8189,20.57059 7.82027,21.20376 0.002,0.92616 -6.1571,5.34878 -7.4489,5.34878 -0.18538,0 -7.0115,-7.2285 -15.16915,-16.06334 L 318.54739,342.87333 272.36285,268.18666 C 246.96135,227.109 225.64014,193.5 224.98237,193.5 c -1.03773,0 -7.14983,9.52696 -32.3987,50.5 -2.88088,4.675 -13.03048,21.1 -22.55467,36.5 -9.52419,15.4 -21.60277,34.975 -26.8413,43.5 -5.23853,8.525 -10.38456,16.625 -11.43561,18 -3.67593,4.80888 -29.82748,32.99924 -30.5365,32.91715 -0.39357,-0.0456 -2.17809,-0.98698 -3.96559,-2.09205 z M 219.98359,372.75 c -0.53544,-1.2375 -2.55079,-9.38121 -4.47856,-18.09712 L 212,338.80575 V 291.9282 245.05064 l 5.75,-9.5 c 3.18309,-5.25903 6.41963,-9.49522 7.25,-9.48929 0.825,0.006 4.0875,4.22269 7.25,9.37065 l 5.75,9.35993 v 47.00691 47.00691 l -3.50503,15.84713 C 229.95564,375.17632 230.03792,375 225,375 c -3.23749,0 -4.23682,-0.44822 -5.01641,-2.25 z M 187.67866,135.34533 C 187.3054,134.97206 187,131.36667 187,127.33333 V 120 h -4.76787 c -3.40613,0 -5.79296,-0.69657 -8.35708,-2.43894 C 167.63316,113.31959 167,110.68924 167,89 167,67.310763 167.63316,64.680409 173.87505,60.438935 177.05199,58.280152 178.54671,58 186.88774,58 c 8.57179,0 9.72706,-0.23155 12.78241,-2.561979 1.84741,-1.409088 5.93988,-3.771588 9.09439,-5.25 C 213.84819,47.805484 215.69329,47.5 225,47.5 c 9.4005,0 11.12387,0.292133 16.45781,2.789814 3.27679,1.534397 7.40927,3.896897 9.18328,5.25 C 253.52743,57.741333 254.83372,58 263.06524,58 c 7.4801,0 9.80861,0.376951 12.46326,2.017611 6.76008,4.177964 6.9715,5.06647 6.9715,29.298569 v 21.81618 l -4.69179,4.43382 C 273.54134,119.59844 272.66212,120 268.10027,120 h -5.01614 l -0.29207,7.75 -0.29206,7.75 -37.07134,0.26199 c -20.38924,0.1441 -37.37674,-0.0434 -37.75,-0.41666 z m 45.02279,-34.30485 c 8.67664,-5.290452 8.31477,-19.878013 -0.60757,-24.491931 -9.74834,-5.041063 -21.08083,1.5419 -21.09014,12.251111 -0.007,8.534885 5.57218,14.19286 13.99626,14.19286 2.70311,0 5.77837,-0.77946 7.70145,-1.95204 z"
       id="path3604"
       inkscape:connector-curvature="0" />
    <path
       style="fill:#a5a5a5"
       d="M 201,445.95438 C 158.79205,441.76854 118.02333,425.46337 86.023948,399.97052 30.635948,355.84472 0.09218005,293.26694 0.1339914,224 0.15595364,187.61615 7.0590153,157.1954 22.485561,125.5 39.893477,89.733675 66.699749,59.18978 100.73197,36.34362 112.52635,28.425939 137.01312,16.338599 149.88954,12.0781 223.40147,-12.245241 303.14688,0.95888257 360.97605,47.02948 c 27.51149,21.917501 48.82441,48.239155 63.53839,78.47052 15.42654,31.6954 22.32961,62.11615 22.35157,98.5 0.0212,35.19309 -7.05986,66.08163 -22.35157,97.5 -11.49626,23.62023 -23.69107,40.60686 -43.04932,59.96512 -19.35826,19.35825 -36.34489,31.55306 -59.96512,43.04932 -24.83792,12.08892 -47.25358,18.43153 -76,21.50452 -9.50819,1.01642 -33.95745,0.98094 -44.5,-0.0646 z m 47.5,-20.55981 c 42.97079,-5.81326 85.37236,-26.17049 116.374,-55.87181 37.98137,-36.38829 62.30695,-93.39778 62.30695,-146.02276 0,-45.02597 -17.43244,-92.75711 -47.47881,-130 C 343.99511,49.240635 281.62194,19.819052 223.5,19.819052 c -58.12194,0 -120.49511,29.421583 -156.202141,73.680948 -30.046365,37.24289 -47.478807,84.97403 -47.478807,130 0,52.62498 24.325574,109.63447 62.306949,146.02276 30.973309,29.67418 72.975959,49.85744 116.373999,55.92047 19.21711,2.68477 29.87155,2.6744 50,-0.0487 z M 97.25,372.8251 c -1.7875,-1.10506 -3.249009,-2.53028 -3.247797,-3.16715 0.0012,-0.63687 3.522304,-10.15795 7.824647,-21.15795 7.4061,-18.93551 8.72682,-21.46368 24.81404,-47.5 9.34537,-15.125 29.05778,-47.075 43.80534,-71 14.74757,-23.925 27.65526,-44.69447 28.68376,-46.15437 1.02851,-1.4599 1.87001,-2.86489 1.87001,-3.12219 0,-0.2573 -1.7512,-0.74785 -3.89156,-1.09011 -2.75453,-0.44047 -4.81009,-1.66844 -7.03531,-4.20282 -3.11739,-3.55051 -3.14135,-3.66164 -2.85844,-13.25552 L 187.5,152.5 h 37.5 37.5 l 0.25426,9 c 0.16335,5.78229 -0.19938,9.88308 -1.01457,11.46998 -1.62258,3.15863 -7.34295,7.03002 -10.38757,7.03002 -2.8369,0 -2.89115,0.42019 -0.49654,3.84563 1.55299,2.22153 32.72111,52.63435 56.97515,92.15437 3.5442,5.775 12.31307,19.92636 19.48637,31.44746 11.88843,19.09413 13.73404,22.72162 20.86015,41 4.29978,11.0289 7.8189,20.57059 7.82027,21.20376 0.002,0.92616 -6.1571,5.34878 -7.4489,5.34878 -0.18538,0 -7.0115,-7.2285 -15.16915,-16.06334 L 318.54739,342.87333 272.36285,268.18666 C 246.96135,227.109 225.64014,193.5 224.98237,193.5 c -1.03773,0 -7.14983,9.52696 -32.3987,50.5 -2.88088,4.675 -13.03048,21.1 -22.55467,36.5 -9.52419,15.4 -21.60277,34.975 -26.8413,43.5 -5.23853,8.525 -10.38456,16.625 -11.43561,18 -3.67593,4.80888 -29.82748,32.99924 -30.5365,32.91715 -0.39357,-0.0456 -2.17809,-0.98698 -3.96559,-2.09205 z M 219.98359,372.75 c -0.53544,-1.2375 -2.55079,-9.38121 -4.47856,-18.09712 L 212,338.80575 V 291.9282 245.05064 l 5.75,-9.5 c 3.18309,-5.25903 6.41963,-9.49522 7.25,-9.48929 0.825,0.006 4.0875,4.22269 7.25,9.37065 l 5.75,9.35993 v 47.00691 47.00691 l -3.50503,15.84713 C 229.95564,375.17632 230.03792,375 225,375 c -3.23749,0 -4.23682,-0.44822 -5.01641,-2.25 z M 187.67866,135.34533 C 187.3054,134.97206 187,131.36667 187,127.33333 V 120 h -4.76787 c -3.40613,0 -5.79296,-0.69657 -8.35708,-2.43894 C 167.63316,113.31959 167,110.68924 167,89 167,67.310763 167.63316,64.680409 173.87505,60.438935 177.05199,58.280152 178.54671,58 186.88774,58 c 8.57179,0 9.72706,-0.23155 12.78241,-2.561979 1.84741,-1.409088 5.93988,-3.771588 9.09439,-5.25 C 213.84819,47.805484 215.69329,47.5 225,47.5 c 9.4005,0 11.12387,0.292133 16.45781,2.789814 3.27679,1.534397 7.40927,3.896897 9.18328,5.25 C 253.52743,57.741333 254.83372,58 263.06524,58 c 7.4801,0 9.80861,0.376951 12.46326,2.017611 6.76008,4.177964 6.9715,5.06647 6.9715,29.298569 v 21.81618 l -4.69179,4.43382 C 273.54134,119.59844 272.66212,120 268.10027,120 h -5.01614 l -0.29207,7.75 -0.29206,7.75 -37.07134,0.26199 c -20.38924,0.1441 -37.37674,-0.0434 -37.75,-0.41666 z m 45.02279,-34.30485 c 8.67664,-5.290452 8.31477,-19.878013 -0.60757,-24.491931 -9.74834,-5.041063 -21.08083,1.5419 -21.09014,12.251111 -0.007,8.534885 5.57218,14.19286 13.99626,14.19286 2.70311,0 5.77837,-0.77946 7.70145,-1.95204 z"
       id="path3602"
       inkscape:connector-curvature="0" />
    <path
       style="fill:#f88f5d"
       d="M 201,445.95438 C 158.79205,441.76854 118.02333,425.46337 86.023948,399.97052 30.635948,355.84472 0.09218005,293.26694 0.1339914,224 0.15595364,187.61615 7.0590153,157.1954 22.485561,125.5 39.893477,89.733675 66.699749,59.18978 100.73197,36.34362 112.52635,28.425939 137.01312,16.338599 149.88954,12.0781 223.40147,-12.245241 303.14688,0.95888257 360.97605,47.02948 c 27.51149,21.917501 48.82441,48.239155 63.53839,78.47052 15.42654,31.6954 22.32961,62.11615 22.35157,98.5 0.0212,35.19309 -7.05986,66.08163 -22.35157,97.5 -11.49626,23.62023 -23.69107,40.60686 -43.04932,59.96512 -19.35826,19.35825 -36.34489,31.55306 -59.96512,43.04932 -24.83792,12.08892 -47.25358,18.43153 -76,21.50452 -9.50819,1.01642 -33.95745,0.98094 -44.5,-0.0646 z m 47.5,-20.55981 c 42.97079,-5.81326 85.37236,-26.17049 116.374,-55.87181 37.98137,-36.38829 62.30695,-93.39778 62.30695,-146.02276 0,-45.02597 -17.43244,-92.75711 -47.47881,-130 C 343.99511,49.240635 281.62194,19.819052 223.5,19.819052 c -58.12194,0 -120.49511,29.421583 -156.202141,73.680948 -30.046365,37.24289 -47.478807,84.97403 -47.478807,130 0,52.62498 24.325574,109.63447 62.306949,146.02276 30.973309,29.67418 72.975959,49.85744 116.373999,55.92047 19.21711,2.68477 29.87155,2.6744 50,-0.0487 z M 220.98359,371.75 c -0.53544,-1.2375 -2.55079,-9.38121 -4.47856,-18.09712 L 213,337.80575 v -46.08619 -46.0862 l 5.6368,-9.31668 C 221.73704,231.19251 224.60048,227 225,227 c 0.39952,0 3.26296,4.19251 6.3632,9.31668 L 237,245.63336 v 46.0862 46.08619 l -3.50503,15.84713 C 229.12048,373.43104 228.88294,374 225,374 c -2.20046,0 -3.3124,-0.62291 -4.01641,-2.25 z m -123.891319,-0.5 -2.129297,-1.75 7.700336,-20 7.70033,-20 45.81818,-74.16451 C 181.38182,214.54501 202,180.68251 202,180.08549 202,179.48847 201.08555,179 199.96788,179 c -3.86239,0 -8.82821,-2.82922 -10.44146,-5.9489 -1.18207,-2.28588 -1.52981,-5.27843 -1.31642,-11.32878 L 188.5,153.5 h 36.5 36.5 l 0.29088,7.68428 c 0.36468,9.63386 -1.21694,13.84095 -6.06898,16.1434 -1.93829,0.91978 -4.46865,1.67232 -5.62303,1.67232 -2.80135,0 -2.6477,1.39357 0.75961,6.8894 1.57216,2.53583 22.18618,35.8856 45.80892,74.1106 l 42.95044,69.5 7.70959,20 7.7096,20 -2.1293,1.75 c -1.17111,0.9625 -2.91316,1.75 -3.87122,1.75 -0.97534,0 -7.90287,-6.78614 -15.74158,-15.42031 -12.32789,-13.5789 -15.4937,-17.84798 -26.51107,-35.75 C 299.90258,310.64836 284.81924,286.2 273.26531,267.5 c -11.55393,-18.7 -26.84385,-43.45 -33.97762,-55 -7.13376,-11.55 -13.55382,-21 -14.26679,-21 -1.29158,0 -5.32342,6.38683 -60.91792,96.5 -16.11758,26.125 -30.36855,49.15405 -31.66883,51.17566 C 128.37633,345.48459 102.76125,373 100.94587,373 c -0.948365,0 -2.682486,-0.7875 -3.853599,-1.75 z M 188.49722,133.7625 C 188.24993,133.06813 187.92439,129.575 187.7738,126 l -0.2738,-6.5 -5.05884,-0.50974 c -5.66975,-0.5713 -9.55917,-2.71455 -12.17723,-6.71021 C 168.72298,109.92827 168.5,106.98538 168.5,89 c 0,-18.159628 0.21282,-20.912762 1.80433,-23.34172 3.37669,-5.15348 7.24555,-6.650409 17.19887,-6.654542 8.69458,-0.0036 9.17315,-0.124571 13.9613,-3.528823 13.64527,-9.701426 33.42573,-9.701426 47.071,0 4.78815,3.404252 5.26672,3.525213 13.9613,3.528823 9.95332,0.0041 13.82218,1.501062 17.19887,6.654542 C 281.28718,68.087238 281.5,70.840372 281.5,89 c 0,17.98538 -0.22298,20.92827 -1.76393,23.28005 -2.61806,3.99566 -6.50748,6.13891 -12.17723,6.71021 L 262.5,119.5 262,127 l -0.5,7.5 -36.27659,0.2625 c -28.4986,0.20622 -36.37298,-0.008 -36.72619,-1 z M 235.63158,99.631579 C 239.8595,95.403656 240,95.061721 240,89 240,82.938279 239.8595,82.596344 235.63158,78.368421 231.40366,74.140498 231.06172,74 225,74 c -6.06172,0 -6.40366,0.140498 -10.63158,4.368421 C 210.1405,82.596344 210,82.938279 210,89 c 0,6.061721 0.1405,6.403656 4.36842,10.631579 C 218.59634,103.8595 218.93828,104 225,104 c 6.06172,0 6.40366,-0.1405 10.63158,-4.368421 z"
       id="path3600"
       inkscape:connector-curvature="0" />
    <path
       style="fill:#f77d42"
       d="m 205.01263,446.25218 c -5.79641,-0.2327 -8.0158,-0.6389 -7,-1.28114 1.09537,-0.69257 0.56495,-0.94529 -2.01263,-0.95892 -4.54555,-0.024 -19.44657,-2.61314 -29.11046,-5.05805 C 138.69221,431.82032 109.17824,417.22604 86.5,399.20246 76.619462,391.34989 60.075321,375.08964 51.191647,364.5 31.312187,340.80301 15.651108,310.1712 8.0459261,280.11046 5.601023,270.44657 3.0119185,255.54555 2.9878821,251 2.9758374,248.72221 2.6761666,247.96246 2.1297273,248.82434 0.80724109,250.91023 -0.20309524,225.80387 0.58887164,210.53483 1.0027547,202.55521 1.6458508,197.41272 2.1336577,198.18202 2.674397,199.0348 2.975907,198.26463 2.9878821,196 3.0119185,191.45445 5.601023,176.55343 8.0459261,166.88954 15.179678,138.69221 29.773959,109.17824 47.797536,86.5 55.650112,76.619462 71.910357,60.075321 82.5,51.191647 106.19699,31.312187 136.8288,15.651108 166.88954,8.0459261 176.55343,5.601023 191.45445,3.0119185 196,2.9878821 c 2.26463,-0.011975 3.0348,-0.3134851 2.18202,-0.8542244 -0.7693,-0.4878069 4.37319,-1.130903 12.35281,-1.54478606 15.26904,-0.79196688 40.3754,0.21836945 38.28951,1.54085566 -0.86188,0.5464393 -0.10213,0.8461101 2.17566,0.8581548 4.54555,0.024036 19.44657,2.6131409 29.11046,5.058044 C 310.1712,15.651108 340.80301,31.312187 364.5,51.191647 375.08964,60.075321 391.34989,76.619462 399.20246,86.5 c 18.02358,22.67824 32.61786,52.19221 39.75161,80.38954 2.44491,9.66389 5.03401,24.56491 5.05805,29.11046 0.012,2.26463 0.31348,3.0348 0.85422,2.18202 1.29585,-2.04363 2.31453,23.78414 1.52669,38.70761 -0.38426,7.27864 -1.01207,12.72677 -1.39515,12.10694 -0.38307,-0.61982 -0.96526,1.7512 -1.29375,5.26895 -2.58918,27.72687 -16.28765,64.94976 -33.39138,90.73448 -16.5818,24.99788 -40.36262,48.78064 -65.31275,65.31808 -25.81097,17.10803 -63.01569,30.79763 -90.73448,33.38605 -3.51775,0.32849 -5.89158,0.90895 -5.27518,1.2899 0.6164,0.38095 -4.37492,0.98814 -11.09181,1.34931 -11.85443,0.6374 -14.95172,0.62882 -32.8859,-0.0912 z m 40.0136,-19.29724 c 22.66152,-2.79482 45.05732,-9.50083 66.78907,-19.99877 44.23926,-21.37062 73.77025,-50.90161 95.14087,-95.14087 C 421.22457,282.27832 428,253.78269 428,223.31062 428,178.98914 411.55046,132.77525 382.50069,95.483332 364.80721,72.769773 342.31702,55.02642 312.82581,40.514217 281.10531,24.905013 250.75858,18.174448 217.06423,19.275372 173.87588,20.686501 131.41059,36.51129 95.27887,64.658969 62.987799,89.814669 36.138904,131.81452 25.605815,173.64886 20.126563,195.41084 19.534628,200.26507 19.526863,223.5 c -0.0063,18.9818 0.308377,23.5777 2.294035,33.5 7.317096,36.56342 20.923045,66.58548 43.053834,95 30.033748,38.56141 80.507548,66.72905 133.386298,74.43817 11.36293,1.65658 35.37192,1.92189 46.7652,0.51677 z M 220.98359,371.75 c -0.53544,-1.2375 -2.55079,-9.38121 -4.47856,-18.09712 L 213,337.80575 v -46.08619 -46.0862 l 5.6368,-9.31668 C 221.73704,231.19251 224.60048,227 225,227 c 0.39952,0 3.26296,4.19251 6.3632,9.31668 L 237,245.63336 v 46.0862 46.08619 l -3.50503,15.84713 C 229.12048,373.43104 228.88294,374 225,374 c -2.20046,0 -3.3124,-0.62291 -4.01641,-2.25 z m -123.891319,-0.5 -2.129297,-1.75 7.700336,-20 7.70033,-20 45.81818,-74.16451 C 181.38182,214.54501 202,180.68251 202,180.08549 202,179.48847 201.08555,179 199.96788,179 c -3.86239,0 -8.82821,-2.82922 -10.44146,-5.9489 -1.18207,-2.28588 -1.52981,-5.27843 -1.31642,-11.32878 L 188.5,153.5 h 36.5 36.5 l 0.29088,7.68428 c 0.36468,9.63386 -1.21694,13.84095 -6.06898,16.1434 -1.93829,0.91978 -4.46865,1.67232 -5.62303,1.67232 -2.80135,0 -2.6477,1.39357 0.75961,6.8894 1.57216,2.53583 22.18618,35.8856 45.80892,74.1106 l 42.95044,69.5 7.70959,20 7.7096,20 -2.1293,1.75 c -1.17111,0.9625 -2.91316,1.75 -3.87122,1.75 -0.97534,0 -7.90287,-6.78614 -15.74158,-15.42031 -12.32789,-13.5789 -15.4937,-17.84798 -26.51107,-35.75 C 299.90258,310.64836 284.81924,286.2 273.26531,267.5 c -11.55393,-18.7 -26.84385,-43.45 -33.97762,-55 -7.13376,-11.55 -13.55382,-21 -14.26679,-21 -1.29158,0 -5.32342,6.38683 -60.91792,96.5 -16.11758,26.125 -30.36855,49.15405 -31.66883,51.17566 C 128.37633,345.48459 102.76125,373 100.94587,373 c -0.948365,0 -2.682486,-0.7875 -3.853599,-1.75 z M 188.49722,133.7625 C 188.24993,133.06813 187.92439,129.575 187.7738,126 l -0.2738,-6.5 -5.05884,-0.50974 c -5.66975,-0.5713 -9.55917,-2.71455 -12.17723,-6.71021 C 168.72298,109.92827 168.5,106.98538 168.5,89 c 0,-18.159628 0.21282,-20.912762 1.80433,-23.34172 3.37669,-5.15348 7.24555,-6.650409 17.19887,-6.654542 8.69458,-0.0036 9.17315,-0.124571 13.9613,-3.528823 13.64527,-9.701426 33.42573,-9.701426 47.071,0 4.78815,3.404252 5.26672,3.525213 13.9613,3.528823 9.95332,0.0041 13.82218,1.501062 17.19887,6.654542 C 281.28718,68.087238 281.5,70.840372 281.5,89 c 0,17.98538 -0.22298,20.92827 -1.76393,23.28005 -2.61806,3.99566 -6.50748,6.13891 -12.17723,6.71021 L 262.5,119.5 262,127 l -0.5,7.5 -36.27659,0.2625 c -28.4986,0.20622 -36.37298,-0.008 -36.72619,-1 z M 235.63158,99.631579 C 239.8595,95.403656 240,95.061721 240,89 240,82.938279 239.8595,82.596344 235.63158,78.368421 231.40366,74.140498 231.06172,74 225,74 c -6.06172,0 -6.40366,0.140498 -10.63158,4.368421 C 210.1405,82.596344 210,82.938279 210,89 c 0,6.061721 0.1405,6.403656 4.36842,10.631579 C 218.59634,103.8595 218.93828,104 225,104 c 6.06172,0 6.40366,-0.1405 10.63158,-4.368421 z"
       id="path3598"
       inkscape:connector-curvature="0" />
    <path
       style="fill:#f7793c"
       d="m 207.5,446.06788 -9,-0.68994 6.5,-0.37395 6.5,-0.37395 -5.5,-0.32502 C 165.66598,441.92154 122.9204,425.91452 90.469996,401.04229 49.443486,369.59673 20.529504,326.31894 8.5992442,278.5 5.7395418,267.03772 3.0814241,249.95075 2.8234132,241.37166 L 2.6468264,235.5 l -0.5734132,7 c -0.4977389,6.0762 -0.660704,5.02043 -1.23484918,-8 -0.36378979,-8.25 -0.3231157,-19.95 0.0903869,-26 0.71891048,-10.51846 0.76670078,-10.69356 1.09168418,-4 0.3006834,6.19307 0.3770308,6.42362 0.662299,2 C 5.678262,160.05182 23.86246,115.65163 54.286513,80.5 76.478998,54.859039 98.397436,37.698024 126.5,23.960534 c 25.13028,-12.284538 52.20286,-19.4850312 80,-21.2775999 4.42362,-0.2852682 4.19307,-0.3616156 -2,-0.662299 -6.69356,-0.3249834 -6.51846,-0.3727737 4,-1.09168422 6.05,-0.41350256 17.75,-0.45417665 26,-0.0903869 13.02043,0.57414522 14.0762,0.73711032 8,1.23484922 l -7,0.5734132 5.87166,0.1765868 c 8.57909,0.2580109 25.66606,2.9161286 37.12834,5.775831 15.67018,3.9095248 26.86278,8.0092498 42,15.3841368 44.76029,21.807309 82.10389,59.491166 103.57291,104.516619 11.37479,23.85555 19.4439,54.81906 20.09969,77.12834 l 0.1726,5.87166 0.5774,-6.5 c 0.97538,-10.98023 2.0418,19.47531 1.15551,33 -0.69967,10.677 -0.77812,10.99905 -1.09611,4.5 -0.30337,-6.2004 -0.37933,-6.42886 -0.66493,-2 -2.92396,45.3415 -20.76917,90.00154 -49.35249,123.51132 -26.52511,31.09682 -55.25832,52.22148 -89.46458,65.77439 -20.01791,7.93132 -46.34136,13.84792 -64,14.38498 l -6,0.18248 7,0.64683 7,0.64683 -6.09444,0.17658 c -3.35194,0.0971 -10.77694,0.3471 -16.5,0.5555 -5.72306,0.2084 -14.45556,0.0684 -19.40556,-0.31103 z m 38.99975,-18.58879 C 342.9073,414.84116 414.84116,342.9073 427.47909,246.49975 435.13539,188.09416 411.90886,121.86662 368.5414,78.44637 325.30453,35.156855 258.88752,11.86701 200.50025,19.520913 163.90757,24.317795 129.59866,38.101871 100.00748,59.895264 56.353896,92.045376 27.025613,143.25116 19.53439,200.39744 15.130608,233.99139 20.929296,271.315 35.941065,306 c 5.216217,12.05218 15.570299,29.73409 24.325382,41.54103 41.609323,56.11356 117.963343,88.88747 186.233303,79.93806 z M 220.98359,371.75 c -0.53544,-1.2375 -2.55079,-9.38121 -4.47856,-18.09712 L 213,337.80575 v -46.08619 -46.0862 l 5.6368,-9.31668 C 221.73704,231.19251 224.60048,227 225,227 c 0.39952,0 3.26296,4.19251 6.3632,9.31668 L 237,245.63336 v 46.0862 46.08619 l -3.50503,15.84713 C 229.12048,373.43104 228.88294,374 225,374 c -2.20046,0 -3.3124,-0.62291 -4.01641,-2.25 z m -123.891319,-0.5 -2.129297,-1.75 7.700336,-20 7.70033,-20 45.81818,-74.16451 C 181.38182,214.54501 202,180.68251 202,180.08549 202,179.48847 201.08555,179 199.96788,179 c -3.86239,0 -8.82821,-2.82922 -10.44146,-5.9489 -1.18207,-2.28588 -1.52981,-5.27843 -1.31642,-11.32878 L 188.5,153.5 h 36.5 36.5 l 0.29088,7.68428 c 0.36468,9.63386 -1.21694,13.84095 -6.06898,16.1434 -1.93829,0.91978 -4.46865,1.67232 -5.62303,1.67232 -2.80135,0 -2.6477,1.39357 0.75961,6.8894 1.57216,2.53583 22.18618,35.8856 45.80892,74.1106 l 42.95044,69.5 7.70959,20 7.7096,20 -2.1293,1.75 c -1.17111,0.9625 -2.91316,1.75 -3.87122,1.75 -0.97534,0 -7.90287,-6.78614 -15.74158,-15.42031 -12.32789,-13.5789 -15.4937,-17.84798 -26.51107,-35.75 C 299.90258,310.64836 284.81924,286.2 273.26531,267.5 c -11.55393,-18.7 -26.84385,-43.45 -33.97762,-55 -7.13376,-11.55 -13.55382,-21 -14.26679,-21 -1.29158,0 -5.32342,6.38683 -60.91792,96.5 -16.11758,26.125 -30.36855,49.15405 -31.66883,51.17566 C 128.37633,345.48459 102.76125,373 100.94587,373 c -0.948365,0 -2.682486,-0.7875 -3.853599,-1.75 z M 188.49722,133.7625 C 188.24993,133.06813 187.92439,129.575 187.7738,126 l -0.2738,-6.5 -5.05884,-0.50974 c -5.66975,-0.5713 -9.55917,-2.71455 -12.17723,-6.71021 C 168.72298,109.92827 168.5,106.98538 168.5,89 c 0,-18.159628 0.21282,-20.912762 1.80433,-23.34172 3.37669,-5.15348 7.24555,-6.650409 17.19887,-6.654542 8.69458,-0.0036 9.17315,-0.124571 13.9613,-3.528823 13.64527,-9.701426 33.42573,-9.701426 47.071,0 4.78815,3.404252 5.26672,3.525213 13.9613,3.528823 9.95332,0.0041 13.82218,1.501062 17.19887,6.654542 C 281.28718,68.087238 281.5,70.840372 281.5,89 c 0,17.98538 -0.22298,20.92827 -1.76393,23.28005 -2.61806,3.99566 -6.50748,6.13891 -12.17723,6.71021 L 262.5,119.5 262,127 l -0.5,7.5 -36.27659,0.2625 c -28.4986,0.20622 -36.37298,-0.008 -36.72619,-1 z M 235.63158,99.631579 C 239.8595,95.403656 240,95.061721 240,89 240,82.938279 239.8595,82.596344 235.63158,78.368421 231.40366,74.140498 231.06172,74 225,74 c -6.06172,0 -6.40366,0.140498 -10.63158,4.368421 C 210.1405,82.596344 210,82.938279 210,89 c 0,6.061721 0.1405,6.403656 4.36842,10.631579 C 218.59634,103.8595 218.93828,104 225,104 c 6.06172,0 6.40366,-0.1405 10.63158,-4.368421 z"
       id="path3596"
       inkscape:connector-curvature="0" />
    <path
       style="fill:#616161"
       d="m 220.98359,371.75 c -0.53544,-1.2375 -2.55079,-9.38121 -4.47856,-18.09712 L 213,337.80575 v -46.08619 -46.0862 l 5.6368,-9.31668 C 221.73704,231.19251 224.60048,227 225,227 c 0.39952,0 3.26296,4.19251 6.3632,9.31668 L 237,245.63336 v 46.0862 46.08619 l -3.50503,15.84713 C 229.12048,373.43104 228.88294,374 225,374 c -2.20046,0 -3.3124,-0.62291 -4.01641,-2.25 z m -123.891319,-0.5 -2.129297,-1.75 7.700336,-20 7.70033,-20 45.81818,-74.16451 C 181.38182,214.54501 202,180.68251 202,180.08549 202,179.48847 201.08555,179 199.96788,179 c -3.86239,0 -8.82821,-2.82922 -10.44146,-5.9489 -1.18207,-2.28588 -1.52981,-5.27843 -1.31642,-11.32878 L 188.5,153.5 h 36.5 36.5 l 0.29088,7.68428 c 0.36468,9.63386 -1.21694,13.84095 -6.06898,16.1434 -1.93829,0.91978 -4.46865,1.67232 -5.62303,1.67232 -2.80135,0 -2.6477,1.39357 0.75961,6.8894 1.57216,2.53583 22.18618,35.8856 45.80892,74.1106 l 42.95044,69.5 7.70959,20 7.7096,20 -2.1293,1.75 c -1.17111,0.9625 -2.91316,1.75 -3.87122,1.75 -0.97534,0 -7.90287,-6.78614 -15.74158,-15.42031 -12.32789,-13.5789 -15.4937,-17.84798 -26.51107,-35.75 C 299.90258,310.64836 284.81924,286.2 273.26531,267.5 c -11.55393,-18.7 -26.84385,-43.45 -33.97762,-55 -7.13376,-11.55 -13.55382,-21 -14.26679,-21 -1.29158,0 -5.32342,6.38683 -60.91792,96.5 -16.11758,26.125 -30.36855,49.15405 -31.66883,51.17566 C 128.37633,345.48459 102.76125,373 100.94587,373 c -0.948365,0 -2.682486,-0.7875 -3.853599,-1.75 z M 188.49722,133.7625 C 188.24993,133.06813 187.92439,129.575 187.7738,126 l -0.2738,-6.5 -5.05884,-0.50974 c -5.66975,-0.5713 -9.55917,-2.71455 -12.17723,-6.71021 C 168.72298,109.92827 168.5,106.98538 168.5,89 c 0,-18.159628 0.21282,-20.912762 1.80433,-23.34172 3.37669,-5.15348 7.24555,-6.650409 17.19887,-6.654542 8.69458,-0.0036 9.17315,-0.124571 13.9613,-3.528823 13.64527,-9.701426 33.42573,-9.701426 47.071,0 4.78815,3.404252 5.26672,3.525213 13.9613,3.528823 9.95332,0.0041 13.82218,1.501062 17.19887,6.654542 C 281.28718,68.087238 281.5,70.840372 281.5,89 c 0,17.98538 -0.22298,20.92827 -1.76393,23.28005 -2.61806,3.99566 -6.50748,6.13891 -12.17723,6.71021 L 262.5,119.5 262,127 l -0.5,7.5 -36.27659,0.2625 c -28.4986,0.20622 -36.37298,-0.008 -36.72619,-1 z M 235.63158,99.631579 C 239.8595,95.403656 240,95.061721 240,89 240,82.938279 239.8595,82.596344 235.63158,78.368421 231.40366,74.140498 231.06172,74 225,74 c -6.06172,0 -6.40366,0.140498 -10.63158,4.368421 C 210.1405,82.596344 210,82.938279 210,89 c 0,6.061721 0.1405,6.403656 4.36842,10.631579 C 218.59634,103.8595 218.93828,104 225,104 c 6.06172,0 6.40366,-0.1405 10.63158,-4.368421 z"
       id="path3594"
       inkscape:connector-curvature="0" />
    <path
       style="fill:#252525"
       d="m 222.30323,371.75 c -0.51791,-0.6875 -2.59801,-8.68956 -4.62244,-17.78236 L 214,337.43528 V 291.72769 246.0201 l 5.22439,-8.51005 c 2.87341,-4.68053 5.46091,-8.50931 5.75,-8.5084 0.28908,9.1e-4 2.88811,3.76833 5.77561,8.37204 l 5.25,8.37039 0.0212,45.37796 0.0212,45.37796 -3.68464,17 c -2.02655,9.35 -4.1162,17.5625 -4.64367,18.25 -0.52746,0.6875 -1.74883,1.25 -2.71414,1.25 -0.96531,0 -2.17886,-0.5625 -2.69677,-1.25 z M 98.75,370.91807 c -0.9625,-0.5596 -1.75,-1.6492 -1.75,-2.42135 0,-0.77214 3.14888,-9.57447 6.99751,-19.56073 6.46839,-16.78393 8.2367,-20.17118 23.38589,-44.79642 42.29668,-68.75387 72.04624,-116.87639 73.74807,-119.29394 2.83773,-4.03118 2.47564,-6.8448 -0.88147,-6.84937 -3.77407,-0.005 -9.08808,-3.44019 -10.31528,-6.66796 -0.55848,-1.46892 -0.88477,-5.85622 -0.72507,-9.74954 L 189.5,154.5 h 35.5 35.5 l 0.29035,7.07876 c 0.1597,3.89332 -0.16659,8.28062 -0.72507,9.74954 -1.2272,3.22777 -6.54121,6.66283 -10.31528,6.66796 -3.35227,0.005 -3.71856,2.8095 -0.89442,6.84937 1.02057,1.4599 12.66288,20.20437 25.8718,41.65437 13.20892,21.45 30.97367,50.25 39.47722,64 8.50356,13.75 17.53988,28.375 20.08072,32.5 C 338.4844,329.81711 353,365.11565 353,368.50971 c 0,0.78096 -0.99929,1.95473 -2.22065,2.60838 -2.02751,1.08509 -2.70156,0.66262 -7.75,-4.85742 -3.04114,-3.32524 -9.40577,-10.25671 -14.14361,-15.40328 -7.7228,-8.38902 -13.44197,-17.17066 -55.26457,-84.85739 -30.78999,-49.83126 -47.26673,-75.60096 -48.46338,-75.79696 -1.39912,-0.22917 -5.09318,5.02212 -16.17956,23 -16.72388,27.11975 -18.06601,29.29225 -40.95715,66.29696 -9.52645,15.4 -21.86587,35.40559 -27.42095,44.45686 -8.38519,13.66259 -12.47724,19.08222 -24.10013,31.91887 -7.7,8.5041 -14.45,15.5965 -15,15.7609 -0.55,0.16439 -1.7875,-0.15896 -2.75,-0.71856 z M 189.49734,132.76282 C 189.24999,132.06827 188.92439,128.575 188.7738,125 l -0.2738,-6.5 -5.55181,-0.59709 c -3.0535,-0.3284 -6.72049,-1.36283 -8.14887,-2.29875 C 170.14481,112.55442 169.5,109.19558 169.5,88 c 0,-17.163356 0.21672,-19.819203 1.80856,-22.163847 C 174.23573,61.524694 178.74181,60 188.55674,60 c 7.85387,0 9.10002,-0.26356 12.11341,-2.561979 1.84741,-1.409088 5.93988,-3.766945 9.09439,-5.239683 4.95473,-2.313208 7.02863,-2.677704 15.23546,-2.677704 8.29242,0 10.25732,0.353311 15.45781,2.779497 3.27679,1.528723 7.40927,3.88658 9.18328,5.239683 C 252.49419,59.715983 253.86696,60 261.53215,60 c 10.12258,0 14.693,1.690832 17.2586,6.384845 1.37052,2.507503 1.7677,6.449789 2.03618,20.210311 0.37455,19.196704 -0.38488,23.649084 -4.74649,27.827784 -2.28837,2.19239 -4.25779,2.96802 -8.76595,3.45237 L 261.5,118.5 261,126 l -0.5,7.5 -35.27646,0.26282 c -27.69817,0.20636 -35.37308,-0.008 -35.7262,-1 z M 233,103.46137 c 6.51866,-3.31497 9.56209,-10.689084 7.8073,-18.916754 C 238.25644,72.584395 222.35181,68.448187 213.38652,77.413479 200.04367,90.756326 216.08667,112.06239 233,103.46137 Z"
       id="path3592"
       inkscape:connector-curvature="0" />
  </g>
</svg>
